<?xml version="1.0" encoding="UTF-8" standalone="no"?>
<!DOCTYPE svg PUBLIC "-//W3C//DTD SVG 1.1//EN"
 "http://www.w3.org/Graphics/SVG/1.1/DTD/svg11.dtd">
<!-- Generated by graphviz version 2.30.1 (20130301.0644)
 -->
<!-- Title: flow Pages: 1 -->
<svg width="354pt" height="177pt"
 viewBox="0.00 0.00 354.00 176.62" xmlns="http://www.w3.org/2000/svg" xmlns:xlink="http://www.w3.org/1999/xlink">
<g id="graph0" class="graph" transform="scale(1 1) rotate(0) translate(4 172.619)">
<title>flow</title>
<polygon fill="white" stroke="white" points="-4,5 -4,-172.619 351,-172.619 351,5 -4,5"/>
<!-- 0 -->
<g id="node1" class="node"><title>0</title>
<ellipse fill="none" stroke="black" cx="224" cy="-143.619" rx="18" ry="18"/>
<text text-anchor="middle" x="224" y="-139.919" font-family="Times,serif" font-size="14.00">0</text>
</g>
<!-- t -->
<g id="node2" class="node"><title>t</title>
<ellipse fill="none" stroke="black" cx="328" cy="-89.6192" rx="18" ry="18"/>
<text text-anchor="middle" x="328" y="-85.9192" font-family="Times,serif" font-size="14.00">t</text>
</g>
<!-- 0&#45;&gt;t -->
<g id="edge1" class="edge"><title>0&#45;&gt;t</title>
<path fill="none" stroke="black" d="M240.492,-135.418C256.987,-126.685 283.323,-112.743 302.607,-102.533"/>
<polygon fill="black" stroke="black" points="304.497,-105.493 311.697,-97.7209 301.221,-99.3065 304.497,-105.493"/>
<text text-anchor="middle" x="276" y="-126.819" font-family="Times,serif" font-size="11.00">1.0/1.0</text>
</g>
<!-- 2 -->
<g id="node3" class="node"><title>2</title>
<ellipse fill="none" stroke="black" cx="224" cy="-35.6192" rx="18" ry="18"/>
<text text-anchor="middle" x="224" y="-31.9192" font-family="Times,serif" font-size="14.00">2</text>
</g>
<!-- 2&#45;&gt;t -->
<g id="edge2" class="edge"><title>2&#45;&gt;t</title>
<path fill="none" stroke="black" d="M240.492,-43.8206C256.987,-52.5537 283.323,-66.4958 302.607,-76.7055"/>
<polygon fill="black" stroke="black" points="301.221,-79.9318 311.697,-81.5175 304.497,-73.7453 301.221,-79.9318"/>
<text text-anchor="middle" x="276" y="-72.8192" font-family="Times,serif" font-size="11.00">0.0/1.0</text>
</g>
<!-- 3 -->
<g id="node4" class="node"><title>3</title>
<ellipse fill="none" stroke="black" cx="224" cy="-89.6192" rx="18" ry="18"/>
<text text-anchor="middle" x="224" y="-85.9192" font-family="Times,serif" font-size="14.00">3</text>
</g>
<!-- 3&#45;&gt;t -->
<g id="edge3" class="edge"><title>3&#45;&gt;t</title>
<path fill="none" stroke="black" d="M242.303,-89.6192C258.077,-89.6192 281.636,-89.6192 299.906,-89.6192"/>
<polygon fill="black" stroke="black" points="299.953,-93.1193 309.953,-89.6192 299.953,-86.1193 299.953,-93.1193"/>
<text text-anchor="middle" x="276" y="-92.8192" font-family="Times,serif" font-size="11.00">0.0/0.0</text>
</g>
<!-- 4 -->
<g id="node5" class="node"><title>4</title>
<ellipse fill="none" stroke="black" cx="122" cy="-89.6192" rx="18" ry="18"/>
<text text-anchor="middle" x="122" y="-85.9192" font-family="Times,serif" font-size="14.00">4</text>
</g>
<!-- 4&#45;&gt;2 -->
<g id="edge4" class="edge"><title>4&#45;&gt;2</title>
<path fill="none" stroke="black" d="M138.188,-81.4178C154.267,-72.7351 179.881,-58.9035 198.757,-48.7103"/>
<polygon fill="black" stroke="black" points="200.533,-51.729 207.669,-43.8978 197.207,-45.5697 200.533,-51.729"/>
<text text-anchor="middle" x="173" y="-72.8192" font-family="Times,serif" font-size="11.00">0.0/oo</text>
</g>
<!-- 4&#45;&gt;0 -->
<g id="edge5" class="edge"><title>4&#45;&gt;0</title>
<path fill="none" stroke="black" d="M139.952,-92.1749C153.644,-94.785 173.03,-99.7494 188,-108.619 194.159,-112.269 200.017,-117.25 205.116,-122.309"/>
<polygon fill="black" stroke="black" points="202.595,-124.737 211.992,-129.632 207.698,-119.946 202.595,-124.737"/>
<text text-anchor="middle" x="173" y="-111.819" font-family="Times,serif" font-size="11.00">0.0/oo</text>
</g>
<!-- 5 -->
<g id="node6" class="node"><title>5</title>
<ellipse fill="none" stroke="black" cx="122" cy="-143.619" rx="18" ry="18"/>
<text text-anchor="middle" x="122" y="-139.919" font-family="Times,serif" font-size="14.00">5</text>
</g>
<!-- 5&#45;&gt;3 -->
<g id="edge6" class="edge"><title>5&#45;&gt;3</title>
<path fill="none" stroke="black" d="M139.795,-139.595C153.397,-135.895 172.737,-129.613 188,-120.619 193.376,-117.451 198.68,-113.391 203.469,-109.259"/>
<polygon fill="black" stroke="black" points="205.962,-111.722 210.967,-102.384 201.231,-106.563 205.962,-111.722"/>
<text text-anchor="middle" x="173" y="-136.819" font-family="Times,serif" font-size="11.00">0.0/oo</text>
</g>
<!-- 5&#45;&gt;0 -->
<g id="edge7" class="edge"><title>5&#45;&gt;0</title>
<path fill="none" stroke="black" d="M138.742,-150.253C144.668,-152.418 151.537,-154.542 158,-155.619 171.152,-157.811 174.848,-157.811 188,-155.619 191.13,-155.097 194.356,-154.33 197.524,-153.431"/>
<polygon fill="black" stroke="black" points="198.838,-156.684 207.258,-150.253 196.665,-150.03 198.838,-156.684"/>
<text text-anchor="middle" x="173" y="-159.819" font-family="Times,serif" font-size="11.00">1.0/oo</text>
</g>
<!-- 6 -->
<g id="node7" class="node"><title>6</title>
<ellipse fill="none" stroke="black" cx="122" cy="-35.6192" rx="18" ry="18"/>
<text text-anchor="middle" x="122" y="-31.9192" font-family="Times,serif" font-size="14.00">6</text>
</g>
<!-- 6&#45;&gt;3 -->
<g id="edge8" class="edge"><title>6&#45;&gt;3</title>
<path fill="none" stroke="black" d="M139.865,-32.4643C153.685,-30.7618 173.291,-30.4355 188,-38.6192 191.069,-40.3267 200.14,-53.6056 208.278,-66.1844"/>
<polygon fill="black" stroke="black" points="205.343,-68.0903 213.678,-74.6302 211.24,-64.3197 205.343,-68.0903"/>
<text text-anchor="middle" x="173" y="-41.8192" font-family="Times,serif" font-size="11.00">0.0/oo</text>
</g>
<!-- 6&#45;&gt;2 -->
<g id="edge9" class="edge"><title>6&#45;&gt;2</title>
<path fill="none" stroke="black" d="M133.729,-21.8165C139.974,-14.9374 148.483,-7.31412 158,-3.61919 170.429,1.2064 175.571,1.2064 188,-3.61919 194.246,-6.04399 200.057,-10.1606 205.079,-14.6484"/>
<polygon fill="black" stroke="black" points="202.717,-17.2359 212.271,-21.8165 207.659,-12.2781 202.717,-17.2359"/>
<text text-anchor="middle" x="173" y="-6.81919" font-family="Times,serif" font-size="11.00">0.0/oo</text>
</g>
<!-- s -->
<g id="node8" class="node"><title>s</title>
<ellipse fill="none" stroke="black" cx="18" cy="-89.6192" rx="18" ry="18"/>
<text text-anchor="middle" x="18" y="-85.9192" font-family="Times,serif" font-size="14.00">s</text>
</g>
<!-- s&#45;&gt;6 -->
<g id="edge10" class="edge"><title>s&#45;&gt;6</title>
<path fill="none" stroke="black" d="M34.4916,-81.4178C50.9875,-72.6846 77.3226,-58.7425 96.6075,-48.5329"/>
<polygon fill="black" stroke="black" points="98.4965,-51.4931 105.697,-43.7209 95.2213,-45.3065 98.4965,-51.4931"/>
<text text-anchor="middle" x="70" y="-72.8192" font-family="Times,serif" font-size="11.00">0.0/0.0</text>
</g>
<!-- s&#45;&gt;5 -->
<g id="edge11" class="edge"><title>s&#45;&gt;5</title>
<path fill="none" stroke="black" d="M34.4916,-97.8206C50.9875,-106.554 77.3226,-120.496 96.6075,-130.705"/>
<polygon fill="black" stroke="black" points="95.2213,-133.932 105.697,-135.518 98.4965,-127.745 95.2213,-133.932"/>
<text text-anchor="middle" x="70" y="-126.819" font-family="Times,serif" font-size="11.00">1.0/2.0</text>
</g>
<!-- s&#45;&gt;4 -->
<g id="edge12" class="edge"><title>s&#45;&gt;4</title>
<path fill="none" stroke="black" d="M36.3029,-89.6192C52.0772,-89.6192 75.6363,-89.6192 93.9059,-89.6192"/>
<polygon fill="black" stroke="black" points="93.9527,-93.1193 103.953,-89.6192 93.9526,-86.1193 93.9527,-93.1193"/>
<text text-anchor="middle" x="70" y="-92.8192" font-family="Times,serif" font-size="11.00">0.0/0.0</text>
</g>
</g>
</svg>
